<?xml version="1.0" standalone="no"?>
<!DOCTYPE svg PUBLIC "-//W3C//DTD SVG 20010904//EN"
 "http://www.w3.org/TR/2001/REC-SVG-20010904/DTD/svg10.dtd">
<svg version="1.0" xmlns="http://www.w3.org/2000/svg"
 width="1000.000000pt" height="1000.000000pt" viewBox="0 0 1000.000000 1000.000000"
 preserveAspectRatio="xMidYMid meet">
<metadata>
Created by potrace 1.14, written by Peter Selinger 2001-2017
</metadata>
<g transform="translate(0.000000,1000.000000) scale(0.100000,-0.100000)"
fill="#000000" stroke="none">
<path d="M6469 9536 c-2 -2 -42 -7 -89 -10 -47 -3 -112 -11 -145 -16 -33 -6
-76 -13 -95 -16 -157 -25 -463 -117 -625 -189 -546 -240 -993 -632 -1303
-1140 -120 -196 -256 -510 -308 -707 -9 -35 -18 -70 -20 -78 -2 -8 -11 -50
-20 -92 l-17 -78 -101 -1 c-174 -1 -413 -24 -556 -54 -14 -2 -38 -7 -55 -11
-510 -103 -1007 -341 -1410 -673 -171 -141 -388 -363 -503 -516 -4 -5 -21 -28
-38 -50 -45 -57 -164 -238 -211 -320 -200 -345 -346 -768 -399 -1155 -3 -25
-8 -54 -10 -65 -18 -95 -25 -529 -11 -685 9 -101 13 -138 32 -250 22 -130 24
-137 56 -265 105 -421 305 -830 578 -1185 36 -47 68 -87 71 -90 3 -3 34 -38
69 -79 145 -166 335 -338 521 -472 41 -29 76 -57 78 -61 2 -5 8 -8 12 -8 5 0
48 -25 96 -56 260 -170 726 -364 984 -409 18 -3 36 -8 40 -10 4 -2 22 -7 41
-10 19 -3 70 -12 114 -20 177 -31 302 -40 540 -40 177 0 317 7 395 19 14 2 48
7 75 11 136 17 318 58 480 107 39 12 72 22 75 23 47 14 247 94 320 127 551
253 1014 646 1347 1143 244 363 411 767 492 1186 24 125 25 130 46 312 3 23 7
80 10 126 3 47 6 86 8 87 1 1 25 4 52 8 157 18 410 86 602 161 466 182 872
483 1202 890 165 204 329 497 430 767 57 152 117 370 137 498 35 223 39 277
39 500 0 305 -20 456 -105 790 -5 19 -23 76 -40 125 -297 855 -951 1504 -1805
1791 -85 28 -262 75 -339 90 -12 2 -32 6 -46 8 -25 5 -55 10 -145 22 -27 3
-59 8 -70 11 -25 6 -470 14 -476 9z"/>
</g>
</svg>
